inDegrees=no
num_controls=7
num_derivatives=13
num_iterations=127
num_multipliers=7
num_parameters=0
num_slacks=7
num_states=26
objective=5.433226
objective_accelerations=0.792979
objective_balance=0.025790
objective_effort=0.189165
objective_height=4.375386
objective_ligament=0.049906
solver_duration=1457.580356
status=Solve_Succeeded
success=true
DataType=double
version=3
OpenSimVersion=4.4-2022-07-23-0e9fedc
endheader
time	/jointset/ground_pelvis/pelvis_tilt/value	/jointset/ground_pelvis/pelvis_tx/value	/jointset/ground_pelvis/pelvis_ty/value	/jointset/hip_l/hip_flexion_l/value	/jointset/hip_l/hip_adduction_l/value	/jointset/hip_l/hip_rotation_l/value	/jointset/back/lumbar_extension/value	/jointset/patellofemoral_l/patellar_flexion_l/value	/jointset/knee_l/knee_flexion_l/value	/jointset/knee_l/knee_adduction_l/value	/jointset/knee_l/knee_rotation_l/value	/jointset/ankle_l/ankle_angle_l/value	/jointset/subtalar_l/subtalar_angle_l/value	/jointset/ground_pelvis/pelvis_tilt/speed	/jointset/ground_pelvis/pelvis_tx/speed	/jointset/ground_pelvis/pelvis_ty/speed	/jointset/hip_l/hip_flexion_l/speed	/jointset/hip_l/hip_adduction_l/speed	/jointset/hip_l/hip_rotation_l/speed	/jointset/back/lumbar_extension/speed	/jointset/patellofemoral_l/patellar_flexion_l/speed	/jointset/knee_l/knee_flexion_l/speed	/jointset/knee_l/knee_adduction_l/speed	/jointset/knee_l/knee_rotation_l/speed	/jointset/ankle_l/ankle_angle_l/speed	/jointset/subtalar_l/subtalar_angle_l/speed	/forceset/tau_hip_flexion_l	/forceset/tau_hip_adduction_l	/forceset/tau_hip_rotation_l	/forceset/tau_knee_flexion_l	/forceset/tau_ankle_angle_l	/forceset/tau_subtalar_angle_l	/forceset/tau_lumbar_extension	lambda_cid13_p0	lambda_cid13_p1	lambda_cid13_p2	lambda_cid13_p3	lambda_cid13_p4	lambda_cid13_p5	lambda_cid14_p0	/jointset/ground_pelvis/pelvis_tilt/accel	/jointset/ground_pelvis/pelvis_tx/accel	/jointset/ground_pelvis/pelvis_ty/accel	/jointset/hip_l/hip_flexion_l/accel	/jointset/hip_l/hip_adduction_l/accel	/jointset/hip_l/hip_rotation_l/accel	/jointset/back/lumbar_extension/accel	/jointset/patellofemoral_l/patellar_flexion_l/accel	/jointset/knee_l/knee_flexion_l/accel	/jointset/knee_l/knee_adduction_l/accel	/jointset/knee_l/knee_rotation_l/accel	/jointset/ankle_l/ankle_angle_l/accel	/jointset/subtalar_l/subtalar_angle_l/accel	gamma_cid13_p0	gamma_cid13_p1	gamma_cid13_p2	gamma_cid13_p3	gamma_cid13_p4	gamma_cid13_p5	gamma_cid14_p0
1	-0.5039663739676433	-0.004771489286483189	0.5760815492046735	1.79140802091894	-0.3440639847796041	0.1426247449300026	-0.4363304404574682	1.543980701955566	1.54398070195557	0.0699025446895825	-0.174530359846836	0.4343895428145426	0.2529081459360796	-0.1447516381565955	-0.005893510553023966	0.03267161820807998	0.03527704783791939	0.001053159382315333	-0.05106062758025409	2.298441907296639e-05	-0.1554644423345452	-0.1554644423345463	-0.01050582941993604	-8.696977632289098e-07	-0.06011218935911276	-0.03520406248582399	-0.2659795568748965	0.0361589859208742	-0.01489456708647365	-0.2740171001583136	-0.0576839987092985	0.01172583376242142	0.2235018268188027	-50.8187367317396	8.269536118982291	-6.698445656785874	8.500536122143954	-547.3797044939454	-65.51118700421203	-0.02356803733919706	1.656131311144663	0.1742007938234759	2.102521176918335	-6.944070210823507	-0.2474017412776491	-1.545526563044884	-0.01807139738897073	-5.720749682845079	-5.720749682845086	-0.9588251889229895	-0.03590804224814101	-0.9353040284037615	-0.9615188714520549	-1.283646024205259e-09	-1.623879614011818e-07	-6.387791291646144e-08	-1.635625440570039e-08	-6.424030084904319e-09	-2.224577261693293e-07	6.070954752856345e-09
1.01	-0.5053318117877025	-0.004821716017395613	0.5765131663411914	1.791414698590597	-0.3440651166083193	0.1420392051039893	-0.4363301848737935	1.542140446721585	1.542140446721581	0.06974825730711755	-0.1745304003257721	0.4337416447937547	0.2525092074198779	-0.1283265297593206	-0.004145421237386224	0.05364149463310945	-0.03392670724373949	-0.001274782678324058	-0.06603922468560978	2.783076227572855e-05	-0.2125789123274876	-0.2125789123274936	-0.02034564843164779	-6.740740894198097e-06	-0.06948073250194728	-0.04457649317549439	-0.266328006916092	0.0362022652714367	-0.01489899770745786	-0.2731060683274493	-0.05785579988014858	0.01174705677587687	0.2236622147213113	-50.836600836289	8.228370780871963	-6.65181764559236	8.40100272862052	-547.1517747719579	-65.38041524820521	-0.02358452860002834	1.637110331344346	0.17606982416171	2.092671479162687	-6.906306938095839	-0.224764727600406	-1.472817427102896	0.009717416355090346	-5.705643375724539	-5.705643375725285	-0.9956740603682287	0.01711361325616813	-0.9396368863133154	-0.9239886437756966	-1.407255364912588e-09	-2.09041956764825e-07	-9.368884446451831e-08	-2.657232606681858e-08	-1.108680551869282e-08	-2.790004534586123e-07	7.675472531336633e-09
1.02	-0.5065327165783242	-0.004854270490406136	0.5771541723627327	1.79072978295517	-0.3440893827154726	0.141304121078357	-0.43632988987343	1.539729277244034	1.539729277244033	0.06949574897390542	-0.1745304914654055	0.4329996598557203	0.2520167679015691	-0.1118450322690311	-0.002359058972643964	0.07454939521282648	-0.1030416135757525	-0.003573696304694763	-0.08096946750384229	3.086775268763993e-05	-0.2696472910486583	-0.2696472910486691	-0.03015001956628052	-1.100183995579373e-05	-0.07892957280838173	-0.05390426290721129	-0.2666764569573922	0.03624554462198057	-0.01490342832850868	-0.2721950364965843	-0.0580276010509834	0.0117682797893126	0.2238226026237092	-50.85849240238333	8.186451381453601	-6.603402282688136	8.301429483644295	-547.0322405934928	-65.24854342933445	-0.02360287640039611	1.66740912974759	0.1818553836443865	2.090126007855851	-6.926300460894327	-0.2415960544239039	-1.535855705620205	-0.01843326794731085	-5.711531428490709	-5.711531428490711	-0.9517356135072125	-0.03558605343423606	-0.9513634611237285	-0.9525866798613311	-1.571433304818994e-09	-2.539094213680871e-07	-1.213364924881297e-07	-3.639482571110802e-08	-1.558757691688297e-08	-3.309360165898324e-07	8.852569031414895e-09
1.03	-0.5075685081685571	-0.004868730899584415	0.5780038605505189	1.789354335208211	-0.3441364649462909	0.14041998256006	-0.4363296038398892	1.536747757000238	1.536747757000227	0.0691454580585999	-0.1745306176699198	0.432162718885876	0.2514313024434442	-0.09530273991497347	-0.0005227392024696768	0.09536927513684199	-0.1720159175981645	-0.005835104119777259	-0.09584516175958731	2.333030044840003e-05	-0.3266388613210068	-0.3266388613210121	-0.03989840448786916	-1.308607236237006e-05	-0.08847835613786514	-0.06317837275367354	-0.2667024239231353	0.03625457550569949	-0.01486772945064448	-0.271175428076846	-0.05799288330284213	0.01184819982399122	0.22377785012316	-50.78201175298099	8.093433249812858	-6.53726604330433	8.12142831330944	-546.5836974226258	-65.16844773066649	-0.02362781974314848	1.649220700542488	0.1860535206308623	2.07506985894477	-6.878193184518849	-0.2172422042997362	-1.461477086862716	0.007634717754634195	-5.690287380355801	-5.690287380355003	-0.9849465844988373	0.01760424670895203	-0.9596099854055801	-0.9131893327240234	-1.73602521002335e-09	-2.98758656065631e-07	-1.48962066190063e-07	-4.621330931440942e-08	-2.008669521266905e-08	-3.828245678418886e-07	1.002530408987681e-08
1.04	-0.5084385605527912	-0.00486452146167563	0.5790611777123988	1.787290104858679	-0.3442059270671169	0.1393874769389632	-0.4363294834405488	1.533196857542969	1.533196857542971	0.06869797196347088	-0.1745307399457926	0.4312296952394229	0.2507534226477177	-0.07869719106861385	0.001374910444768602	0.1160751900316611	-0.2407981340847488	-0.008049674304842406	-0.1106428880677708	-2.259087112447836e-06	-0.3835231337433107	-0.3835231337433108	-0.04958905553002372	-1.021611065442497e-05	-0.09814610812914509	-0.07238713042754802	-0.2667283908890673	0.03626360638945717	-0.0148320305728068	-0.270155819657091	-0.0579581655546547	0.01192811985876297	0.2237330976224171	-50.70981452180715	7.999782087733387	-6.469448816900003	7.942120743993264	-546.2444762414318	-65.08789721316261	-0.02365474155257862	1.680060428207976	0.1941213590571894	2.067333002016576	-6.887882953728784	-0.2322285284204103	-1.520262116107843	-0.02204365501168987	-5.690071858481785	-5.690071858481842	-0.9401888376204169	-0.03459521461127114	-0.9751571934830225	-0.9395162453437346	-2.334869715988762e-09	-3.400472406633855e-07	-1.738477492856743e-07	-5.446994230001105e-08	-2.449525915262453e-08	-4.269010019826671e-07	1.068139005742399e-08
1.05	-0.5091421904411009	-0.004840964915157112	0.5803249067612224	1.784539099913034	-0.3442972957146193	0.1382073598479205	-0.4363296830639067	1.529077761221272	1.529077761221269	0.06815396199889548	-0.1745308327079183	0.4301993941763996	0.2499838112497834	-0.06201419850288748	0.003352962433872655	0.1366439244638363	-0.3093618661311537	-0.01021503295581187	-0.1253634307954416	-3.717937106808043e-05	-0.440267289566752	-0.4402672895667515	-0.05919982723368771	-7.178512699318307e-06	-0.1079340289732967	-0.08151998296275344	-0.2664802670932048	0.03624812868236313	-0.01475698792456052	-0.26903656628751	-0.05768355950786502	0.0120538187176271	0.2235327952667016	-50.53163722002268	7.862641217847615	-6.38892827841322	7.650165286780179	-545.6165739835362	-65.04581502149439	-0.02368720989254574	1.664605681175153	0.2021190366341326	2.047633548747155	-6.834471337513371	-0.207302906262013	-1.445401458947464	0.00585671506298129	-5.662263560582008	-5.662263560581851	-0.9695824100713603	0.01786310482091499	-0.9836162094552361	-0.897810232233385	-2.947284615727955e-09	-3.812245549455217e-07	-1.98647810799838e-07	-6.267776745380956e-08	-2.89009932689603e-08	-4.707333074637184e-07	1.132133074088009e-08
1.06	-0.5096785530016734	-0.004797133465188109	0.5817935211313531	1.781103687045433	-0.3444100406231996	0.1368805471080451	-0.4363302173038868	1.524392088118078	1.52439208811808	0.0675142321026241	-0.1745308731225118	0.4290706125690156	0.2491233432315724	-0.04524372552035107	0.005429891134865474	0.1570522542931604	-0.3776797184742391	-0.01232492651986084	-0.1399820178371403	-6.918244899761014e-05	-0.4968384900424635	-0.4968384900424617	-0.06873304187063109	2.533981381252692e-07	-0.1178422170004098	-0.09055845448293574	-0.2662321432973968	0.03623265097531025	-0.01468194527628788	-0.2679173129179206	-0.05740895346105614	0.01217951757657009	0.2233324929109314	-50.35807170807075	7.724991527376909	-6.306822783528903	7.359841611358332	-545.0991220053194	-65.00424212225209	-0.02372185824629591	1.697556511569966	0.2138967014349487	2.035252081446343	-6.838707013064899	-0.2211355110362843	-1.49987097891339	-0.02146021380613302	-5.655480788935813	-5.655480788935738	-0.9246774242763137	-0.03371635203473703	-0.9992106300753053	-0.9206400423390646	-3.734227850087876e-09	-4.180095572893383e-07	-2.205546795832469e-07	-6.951269655328179e-08	-3.295915406914501e-08	-5.071185357261516e-07	1.16253105001241e-08
1.07	-0.5100467180732819	-0.004731970955882178	0.5834653422625068	1.776986389344751	-0.3445436210452527	0.1354080193630422	-0.4363310788149952	1.519141673606275	1.519141673606287	0.06677964105429381	-0.1745308716038652	0.4278421571646586	0.2481729686575927	-0.02837050870210069	0.007625752658336315	0.1772778273424815	-0.4457321050357756	-0.01438163462771695	-0.1545026784094941	-0.0001035844641912947	-0.5532048475907646	-0.5532048475907645	-0.07816994292303134	3.86276039063392e-07	-0.1278672541159034	-0.09949703483437944	-0.2656697623246193	0.03619581741833876	-0.01456734233881114	-0.2667395997107064	-0.05681830634635006	0.01234098550962065	0.2229472978446148	-50.05500435123994	7.54876936624828	-6.218153276862078	6.935047554977448	-544.2834556726698	-64.99422587545169	-0.02376192533390277	1.685019417609448	0.2258868170908391	2.011080770527604	-6.781349059045642	-0.196468193537519	-1.425055486177512	0.005500097022812935	-5.621280915016817	-5.621280915017066	-0.9509472003467559	0.01685195047372753	-1.006930474094631	-0.8774516345707877	-4.530454506502092e-09	-4.545609260194145e-07	-2.423076551362964e-07	-7.627459926688559e-08	-3.699882692698125e-08	-5.43107642859935e-07	1.191141999744194e-08
1.08	-0.5102455879465733	-0.004644158643483946	0.5853383932949238	1.772189998862219	-0.3446974744949525	0.1337909066343521	-0.4363322982870192	1.513328781983542	1.513328781983535	0.06595113084448506	-0.1745308739878937	0.4265128953447852	0.247133811359494	-0.01138468585757263	0.009959851753325744	0.1972982345458794	-0.5134982748512168	-0.01637953205066077	-0.1688990145730921	-0.0001407747834176379	-0.6093339122286507	-0.6093339122286523	-0.08751687416042807	-5.27135212293141e-07	-0.1380035001037289	-0.1083149993067757	-0.2651073813516086	0.03615898386137565	-0.01445273940140839	-0.26556188650351	-0.05622765923168652	0.01250245344265989	0.2225621027785457	-49.75691457514326	7.372148014658187	-6.127968395460565	6.512796986314785	-543.5792877383323	-64.9859944764095	-0.02380443909021445	1.72007771682546	0.2415442157386766	1.994218912261686	-6.781463663845835	-0.2093733740538143	-1.475006097162189	-0.02201787461000582	-5.60802220685281	-5.608022206852777	-0.9066834612756343	-0.03392560986515528	-1.02145240454166	-0.8965168665295535	-7.708409126415518e-09	-4.931537442289724e-07	-2.523460835343186e-07	-7.917358749194033e-08	-4.287312255765239e-08	-5.669694436639886e-07	9.394624081658691e-09
